<svg id="Layer_1" data-name="Layer 1" xmlns="http://www.w3.org/2000/svg" viewBox="0 0 899 330"><defs><style>.cls-1{fill:#d5333e;}</style></defs><title>header-TEMPLATE</title><g id="circle"><path class="cls-1" d="M450,15c-82.74,0-150,67.26-150,150s67.26,150,150,150,150-67.26,150-150S532.74,15,450,15Zm0,276A126,126,0,1,1,576,165,126,126,0,0,1,450,291Z"/></g><path class="cls-1" d="M375.32,129.49h23.19l32.93,53.83h0.22V129.49h17.07v77.46H426.41l-33.81-55.14h-0.22v55.14H375.32V129.49Z"/><path class="cls-1" d="M515.14,149.62c-3.39-4-8.32-6.35-14.66-6.35-12.91,0-22.43,10.5-22.43,24.94s9.52,24.94,21.88,24.94a18.53,18.53,0,0,0,16-8.31l14.22,10.61c-6.46,9.19-17.4,13.46-28,13.46-24.18,0-41.79-15.86-41.79-40.7s17.61-40.7,41.79-40.7c8.64,0,19.58,3,26.15,11.38Z"/></svg>